<mxfile host="Electron" modified="2023-08-23T11:04:51.343Z" agent="5.0 (Windows NT 10.0; Win64; x64) AppleWebKit/537.36 (KHTML, like Gecko) draw.io/20.3.0 Chrome/104.0.5112.114 Electron/20.1.3 Safari/537.36" etag="Tfe1x--B73DawZugKK5R" compressed="false" version="20.3.0" type="device">
  <diagram name="PE014A" id="1CP9VX86ncTdAmcYDIcw">
    <mxGraphModel dx="1408" dy="843" grid="1" gridSize="2" guides="1" tooltips="1" connect="1" arrows="1" fold="1" page="1" pageScale="1" pageWidth="1169" pageHeight="827" math="0" shadow="0">
      <root>
        <mxCell id="22vkG-h5v2N9dKBLQ-ZE-0" />
        <mxCell id="22vkG-h5v2N9dKBLQ-ZE-135" value="Label" style="" parent="22vkG-h5v2N9dKBLQ-ZE-0" />
        <object label="%LabelLines%&amp;nbsp; &amp;nbsp; &amp;nbsp; &amp;nbsp; &amp;nbsp; &amp;nbsp;%LabelIndex%" placeholders="1" LabelLines="1" LabelIndex="A" id="VV3rEkh79yANCbOM0g5j-3">
          <mxCell style="rounded=0;whiteSpace=wrap;html=1;fillColor=none;strokeColor=#FF0000;fontColor=#FF0000;fontSize=10;align=left;" vertex="1" parent="22vkG-h5v2N9dKBLQ-ZE-135">
            <mxGeometry x="518" y="288" width="80" height="16" as="geometry" />
          </mxCell>
        </object>
        <object label="Symbol" Width="48" Height="14" UoM="mm" id="22vkG-h5v2N9dKBLQ-ZE-138">
          <mxCell style="locked=1;" parent="22vkG-h5v2N9dKBLQ-ZE-0" />
        </object>
        <mxCell id="VV3rEkh79yANCbOM0g5j-0" value="" style="rounded=0;whiteSpace=wrap;html=1;fillColor=none;" vertex="1" parent="22vkG-h5v2N9dKBLQ-ZE-138">
          <mxGeometry x="176" y="336" width="768" height="224" as="geometry" />
        </mxCell>
        <mxCell id="VV3rEkh79yANCbOM0g5j-1" value="" style="shape=trapezoid;perimeter=trapezoidPerimeter;whiteSpace=wrap;html=1;fixedSize=1;fillColor=none;rotation=90;size=48.75;" vertex="1" parent="22vkG-h5v2N9dKBLQ-ZE-138">
          <mxGeometry x="479.25" y="95.75" width="161" height="703.5" as="geometry" />
        </mxCell>
        <mxCell id="22vkG-h5v2N9dKBLQ-ZE-124" value="Connection" style="" parent="22vkG-h5v2N9dKBLQ-ZE-0" />
        <mxCell id="22vkG-h5v2N9dKBLQ-ZE-136" value="Origo" style="" parent="22vkG-h5v2N9dKBLQ-ZE-0" />
        <object label="origo" id="VV3rEkh79yANCbOM0g5j-2">
          <mxCell style="vsdxID=1407;fillColor=none;gradientColor=none;shape=stencil(rVFbDsIgEDwNnyQU4glqvcfGblsilmZBS28vZGMsxg9j/JvZmX1kR5g2TLCg0CpE8hdcbR8nYY5CaztPSDZmJEwnTDt4wpH8be6ZL1CcBV39vUxI3KdKh1YbswPTEzuBzlmiVGmKau9zUKM+jlJJQrJBko8QrZ+rrQ5oRJnXyMHBWElhRVx25ebnw/5zVvPFWRm83jxY5zilvf4eSy5xpKZ7AA==);strokeColor=#ff0000;strokeWidth=1;points=[[0.5,0.5,0,0,0]];labelBackgroundColor=none;rounded=0;html=1;whiteSpace=wrap;aspect=fixed;noLabel=1;snapToPoint=1;" vertex="1" parent="22vkG-h5v2N9dKBLQ-ZE-136">
            <mxGeometry x="172" y="332" width="8" height="8" as="geometry" />
          </mxCell>
        </object>
      </root>
    </mxGraphModel>
  </diagram>
</mxfile>
